<?xml version="1.0" encoding="UTF-8"?>
<svg width="96" height="32" viewBox="0 0 96 32" fill="none" xmlns="http://www.w3.org/2000/svg">
  <defs>
    <linearGradient id="cashlypayGradient" x1="0" y1="0" x2="96" y2="32" gradientUnits="userSpaceOnUse">
      <stop offset="0" stop-color="#00D54B"/>
      <stop offset="1" stop-color="#00A75A"/>
    </linearGradient>
    <linearGradient id="cashGlyph" x1="4" y1="4" x2="28" y2="28" gradientUnits="userSpaceOnUse">
      <stop offset="0" stop-color="#1F1F1F"/>
      <stop offset="1" stop-color="#050505"/>
    </linearGradient>
  </defs>

  <rect x="2" y="2" width="28" height="28" rx="14" fill="url(#cashGlyph)"/>
  <path d="M18.5 10.25c-1.02-.68-2.4-1.21-3.98-1.21-2.88 0-4.6 1.54-4.6 3.74 0 2.1 1.5 3.2 3.9 3.74l1.22.28c1.44.34 2.16.8 2.16 1.62 0 .96-.94 1.6-2.32 1.6-1.5 0-2.8-.64-3.74-1.7l-2.02 1.86c1.22 1.54 3.06 2.52 5.6 2.62v1.92h2.28v-1.98c2.62-.32 4.46-1.96 4.46-4.32 0-2.14-1.24-3.3-3.84-3.92l-1.44-.34c-1.26-.3-1.98-.68-1.98-1.48 0-.82.74-1.38 2.02-1.38 1.2 0 2.24.46 3.06 1.2l1.94-1.78c-.8-.9-1.66-1.46-2.92-1.97Z" fill="url(#cashlypayGradient)"/>

  <text x="36" y="22" font-family="Inter, 'Square Sans', sans-serif" font-size="18" font-weight="700" fill="#FFFFFF" letter-spacing="0.02em">
    CashlyPay
  </text>
  <rect x="34" y="6" width="58" height="20" rx="10" fill="url(#cashlypayGradient)" opacity="0.08"/>
</svg>
